<svg width="40" height="40" viewBox="0 0 40 40" fill="none" xmlns="http://www.w3.org/2000/svg">
<g clip-path="url(#clip0_74_190)">
<path fill-rule="evenodd" clip-rule="evenodd" d="M11.0371 0.0531006C4.94146 0.0531006 0 4.99456 0 11.0902V27.2779C0 33.3736 4.94146 38.315 11.0371 38.315H13.9803C15.1994 38.315 16.1877 37.3266 16.1877 36.1076C16.1877 34.8885 15.1994 33.9001 13.9803 33.9001H11.0371C7.37971 33.9001 4.41483 30.9351 4.41483 27.2779V17.7124H20.6025V25.8063C20.6025 27.0254 21.5909 28.0137 22.81 28.0137C24.029 28.0137 25.0174 27.0254 25.0174 25.8063V4.46793H27.2248C30.882 4.46793 33.847 7.43281 33.847 11.0902V14.0334C33.847 15.2525 34.8354 16.2408 36.0545 16.2408C37.2735 16.2408 38.2619 15.2525 38.2619 14.0334V11.0902C38.2619 4.99456 33.3205 0.0531006 27.2248 0.0531006H11.0371ZM20.6025 4.46793V13.2976H4.41483V11.0902C4.41483 7.43281 7.37971 4.46793 11.0371 4.46793H20.6025Z" fill="#F0F8FF"/>
<path d="M39.8212 26.1627C40.396 25.5882 40.396 24.6564 39.8212 24.0816L36.6993 20.96C36.1248 20.3852 35.193 20.3852 34.6182 20.96L31.8012 23.7769L37.0043 28.9797L39.8212 26.1627Z" fill="#F0F8FF"/>
<path d="M34.9231 31.0611L29.7201 25.8581L22.5121 33.066C21.4134 34.1647 20.7936 35.6537 20.7883 37.2077L20.7812 39.2618C20.7797 39.67 21.1111 40.0014 21.5194 40L23.5731 39.9929C25.1275 39.9876 26.6161 39.3678 27.7151 38.2688L34.9231 31.0611Z" fill="#F0F8FF"/>
</g>
<defs>
<clipPath id="clip0_74_190">
<rect width="40" height="40" fill="white"/>
</clipPath>
</defs>
</svg>
