<svg width="38" height="38" viewBox="0 0 38 38" fill="none" xmlns="http://www.w3.org/2000/svg">
<g clip-path="url(#clip0_29_13)">
<path d="M32.8182 1.52588e-05H5.18182C2.31998 1.52588e-05 0 2.31999 0 5.18183V32.8182C0 35.68 2.31998 38 5.18182 38H32.8182C35.68 38 38 35.68 38 32.8182V5.18183C38 2.31999 35.68 1.52588e-05 32.8182 1.52588e-05Z" fill="#66B3FF"/>
<path d="M19 7.61945C12.4385 7.61945 7.125 12.8444 7.125 19.2893C7.125 24.4452 10.5277 28.8196 15.2453 30.3611C15.8391 30.4691 16.055 30.1085 16.055 29.7998C16.055 29.491 16.055 28.7872 16.042 27.8156C12.7386 28.5194 12.0412 26.2502 12.0412 26.2502C11.5015 24.903 10.7199 24.5424 10.7199 24.5424C9.64034 23.8191 10.8041 23.8342 10.8041 23.8342C11.9959 23.9141 12.622 25.0368 12.622 25.0368C13.68 26.8202 15.4008 26.3042 16.0766 26.0063C16.1339 25.4112 16.4056 24.8572 16.8409 24.4474C14.2047 24.1538 11.4432 23.1519 11.4432 18.6805C11.42 17.5186 11.8515 16.3937 12.6458 15.5455C12.5119 15.2497 12.1125 14.0643 12.7494 12.4558C12.7494 12.4558 13.7448 12.1427 16.0161 13.6519C17.9606 13.128 20.0091 13.128 21.9536 13.6519C24.2099 12.1406 25.1923 12.4558 25.1923 12.4558C25.84 14.0643 25.4298 15.2497 25.311 15.5455C26.1084 16.3911 26.5451 17.514 26.5287 18.6762C26.5287 23.1584 23.7522 24.1451 21.1116 24.4323C21.5261 24.7821 21.9126 25.4989 21.9126 26.5914C21.9126 28.1524 21.8975 29.3982 21.8975 29.7868C21.8975 30.0934 22.1134 30.4583 22.7136 30.3417C27.4636 28.8088 30.8642 24.4323 30.8642 19.285C30.875 12.8444 25.5572 7.61945 19 7.61945Z" fill="#cee8fd"/>
</g>
<defs>
<clipPath id="clip0_29_13">
<rect width="38" height="38" fill="white"/>
</clipPath>
</defs>
</svg>
