<svg width="38" height="38" viewBox="0 0 38 38" fill="none" xmlns="http://www.w3.org/2000/svg">
<g clip-path="url(#clip0_29_9)">
<path d="M34.4742 1.52588e-05H3.5258C2.5907 1.52588e-05 1.6939 0.371482 1.03268 1.0327C0.371467 1.69391 0 2.59071 0 3.52581L0 34.4742C0 35.4093 0.371467 36.3061 1.03268 36.9673C1.6939 37.6286 2.5907 38 3.5258 38H34.4742C35.4093 38 36.3061 37.6286 36.9673 36.9673C37.6285 36.3061 38 35.4093 38 34.4742V3.52581C38 2.59071 37.6285 1.69391 36.9673 1.0327C36.3061 0.371482 35.4093 1.52588e-05 34.4742 1.52588e-05ZM12.9545 30.0718C12.9548 30.1772 12.9343 30.2816 12.8942 30.379C12.8541 30.4765 12.7951 30.565 12.7207 30.6396C12.6463 30.7143 12.5579 30.7734 12.4606 30.8138C12.3632 30.8542 12.2589 30.875 12.1535 30.875H8.74C8.63445 30.8753 8.52987 30.8547 8.4323 30.8145C8.33472 30.7742 8.24607 30.715 8.17143 30.6404C8.09679 30.5658 8.03764 30.4771 7.99738 30.3795C7.95711 30.282 7.93653 30.1774 7.93682 30.0718V15.7614C7.93682 15.5484 8.02144 15.3441 8.17206 15.1934C8.32269 15.0428 8.52698 14.9582 8.74 14.9582H12.1535C12.3662 14.9588 12.5699 15.0436 12.7201 15.1942C12.8702 15.3448 12.9545 15.5487 12.9545 15.7614V30.0718ZM10.4457 13.6023C9.80514 13.6023 9.17898 13.4123 8.64639 13.0565C8.1138 12.7006 7.6987 12.1948 7.45357 11.603C7.20845 11.0112 7.14431 10.3601 7.26928 9.73183C7.39424 9.10359 7.70269 8.52652 8.15562 8.07359C8.60855 7.62066 9.18562 7.31221 9.81386 7.18724C10.4421 7.06228 11.0933 7.12642 11.6851 7.37154C12.2768 7.61667 12.7826 8.03177 13.1385 8.56436C13.4944 9.09695 13.6843 9.72311 13.6843 10.3637C13.6843 11.2226 13.3431 12.0464 12.7357 12.6537C12.1284 13.2611 11.3046 13.6023 10.4457 13.6023ZM30.7973 30.128C30.7976 30.225 30.7787 30.3212 30.7416 30.4109C30.7046 30.5006 30.6503 30.5821 30.5816 30.6507C30.513 30.7194 30.4315 30.7737 30.3418 30.8108C30.2521 30.8478 30.1559 30.8667 30.0589 30.8664H26.3884C26.2914 30.8667 26.1952 30.8478 26.1055 30.8108C26.0158 30.7737 25.9343 30.7194 25.8656 30.6507C25.797 30.5821 25.7426 30.5006 25.7056 30.4109C25.6686 30.3212 25.6497 30.225 25.65 30.128V23.424C25.65 22.4222 25.9436 19.0367 23.031 19.0367C20.7748 19.0367 20.3149 21.3534 20.2242 22.3941V30.1366C20.2242 30.3306 20.1479 30.5168 20.0118 30.655C19.8756 30.7931 19.6906 30.8722 19.4966 30.875H15.9514C15.8545 30.875 15.7586 30.8559 15.6691 30.8188C15.5796 30.7816 15.4984 30.7272 15.43 30.6586C15.3616 30.59 15.3074 30.5086 15.2705 30.419C15.2337 30.3294 15.2148 30.2335 15.2151 30.1366V15.6988C15.2148 15.6019 15.2337 15.5059 15.2705 15.4164C15.3074 15.3268 15.3616 15.2454 15.43 15.1768C15.4984 15.1082 15.5796 15.0537 15.6691 15.0166C15.7586 14.9795 15.8545 14.9604 15.9514 14.9604H19.4966C19.6924 14.9604 19.8802 15.0382 20.0187 15.1766C20.1572 15.3151 20.235 15.5029 20.235 15.6988V16.9467C21.0727 15.688 22.3142 14.7207 24.9634 14.7207C30.8318 14.7207 30.793 20.2005 30.793 23.2102L30.7973 30.128Z" fill="#66B3FF"/>
</g>
<defs>
<clipPath id="clip0_29_9">
<rect width="38" height="38" fill="white"/>
</clipPath>
</defs>
</svg>
